<svg width="26" height="27" viewBox="0 0 26 27" fill="none" xmlns="http://www.w3.org/2000/svg">
<path d="M22.1879 18.1876C21.6452 17.2529 20.8385 14.6079 20.8385 11.1532C20.8385 9.07858 20.0144 7.08889 18.5474 5.62188C17.0804 4.15488 15.0907 3.33072 13.016 3.33072C10.9414 3.33072 8.95167 4.15488 7.48466 5.62188C6.01765 7.08889 5.1935 9.07858 5.1935 11.1532C5.1935 14.6088 4.38582 17.2529 3.84314 18.1876C3.70455 18.4253 3.63108 18.6953 3.63014 18.9704C3.62919 19.2455 3.70081 19.516 3.83776 19.7546C3.97471 19.9932 4.17215 20.1915 4.41018 20.3294C4.6482 20.4673 4.91839 20.5401 5.1935 20.5403H9.18396C9.36444 21.4234 9.8444 22.2171 10.5427 22.7871C11.2409 23.3571 12.1146 23.6684 13.016 23.6684C13.9174 23.6684 14.7911 23.3571 15.4894 22.7871C16.1876 22.2171 16.6676 21.4234 16.8481 20.5403H20.8385C21.1136 20.5399 21.3836 20.467 21.6215 20.329C21.8594 20.191 22.0567 19.9927 22.1936 19.7542C22.3304 19.5156 22.4019 19.2452 22.4009 18.9702C22.3999 18.6951 22.3265 18.4252 22.1879 18.1876ZM13.016 22.1048C12.5308 22.1046 12.0576 21.9541 11.6616 21.6739C11.2655 21.3938 10.9659 20.9977 10.8042 20.5403H15.2278C15.0661 20.9977 14.7666 21.3938 14.3705 21.6739C13.9744 21.9541 13.5012 22.1046 13.016 22.1048ZM5.1935 18.9758C5.94642 17.6811 6.758 14.6812 6.758 11.1532C6.758 9.49351 7.41733 7.90176 8.59093 6.72816C9.76454 5.55455 11.3563 4.89522 13.016 4.89522C14.6758 4.89522 16.2675 5.55455 17.4411 6.72816C18.6147 7.90176 19.274 9.49351 19.274 11.1532C19.274 14.6783 20.0837 17.6782 20.8385 18.9758H5.1935Z" fill="#F6F6F6"/>
</svg>
