<svg width="24" height="25" viewBox="0 0 24 25" fill="none" xmlns="http://www.w3.org/2000/svg">
<path d="M12 21.5L10.55 20.2C8.86667 18.6833 7.475 17.375 6.375 16.275C5.275 15.175 4.4 14.1917 3.75 13.325C3.1 12.4417 2.64167 11.6333 2.375 10.9C2.125 10.1667 2 9.41667 2 8.65C2 7.08334 2.525 5.775 3.575 4.725C4.625 3.675 5.93333 3.15 7.5 3.15C8.36667 3.15 9.19167 3.33333 9.975 3.7C10.7583 4.06667 11.4333 4.58334 12 5.25C12.5667 4.58334 13.2417 4.06667 14.025 3.7C14.8083 3.33333 15.6333 3.15 16.5 3.15C18.0667 3.15 19.375 3.675 20.425 4.725C21.475 5.775 22 7.08334 22 8.65C22 9.41667 21.8667 10.1667 21.6 10.9C21.35 11.6333 20.9 12.4417 20.25 13.325C19.6 14.1917 18.725 15.175 17.625 16.275C16.525 17.375 15.1333 18.6833 13.45 20.2L12 21.5ZM12 18.8C13.6 17.3667 14.9167 16.1417 15.95 15.125C16.9833 14.0917 17.8 13.2 18.4 12.45C19 11.6833 19.4167 11.0083 19.65 10.425C19.8833 9.825 20 9.23334 20 8.65C20 7.65 19.6667 6.81667 19 6.15C18.3333 5.48334 17.5 5.15 16.5 5.15C15.7167 5.15 14.9917 5.375 14.325 5.825C13.6583 6.25834 13.2 6.81667 12.95 7.5H11.05C10.8 6.81667 10.3417 6.25834 9.675 5.825C9.00833 5.375 8.28333 5.15 7.5 5.15C6.5 5.15 5.66667 5.48334 5 6.15C4.33333 6.81667 4 7.65 4 8.65C4 9.23334 4.11667 9.825 4.35 10.425C4.58333 11.0083 5 11.6833 5.6 12.45C6.2 13.2 7.01667 14.0917 8.05 15.125C9.08333 16.1417 10.4 17.3667 12 18.8Z" fill="#F6F6F6"/>
</svg>
