<svg width="16" height="16" viewBox="0 0 16 16" fill="none" xmlns="http://www.w3.org/2000/svg">
<path d="M15.8048 14.862L11.8254 10.8827C12.9098 9.5564 13.443 7.86407 13.3147 6.15571C13.1863 4.44736 12.4062 2.85369 11.1358 1.70435C9.8654 0.555014 8.20183 -0.0620646 6.48919 -0.0192434C4.77656 0.0235778 3.1459 0.723023 1.93451 1.93442C0.723114 3.14581 0.0236694 4.77647 -0.0191518 6.4891C-0.0619731 8.20174 0.555106 9.86531 1.70445 11.1357C2.85379 12.4061 4.44745 13.1862 6.15581 13.3146C7.86416 13.4429 9.5565 12.9098 10.8828 11.8253L14.8621 15.8047C14.9878 15.9261 15.1562 15.9933 15.331 15.9918C15.5058 15.9903 15.673 15.9202 15.7966 15.7966C15.9203 15.6729 15.9904 15.5057 15.9919 15.3309C15.9934 15.1561 15.9262 14.9877 15.8048 14.862ZM6.66677 12C5.61193 12 4.58079 11.6872 3.70372 11.1012C2.82666 10.5151 2.14308 9.68219 1.73941 8.70765C1.33574 7.73311 1.23012 6.66076 1.43591 5.62619C1.6417 4.59163 2.14965 3.64132 2.89553 2.89544C3.64141 2.14956 4.59172 1.64161 5.62628 1.43582C6.66085 1.23003 7.7332 1.33565 8.70774 1.73932C9.68228 2.14298 10.5152 2.82657 11.1013 3.70363C11.6873 4.58069 12.0001 5.61184 12.0001 6.66667C11.9985 8.08067 11.4361 9.43631 10.4362 10.4362C9.4364 11.436 8.08077 11.9984 6.66677 12Z" fill="#F6F6F6"/>
</svg>
