<svg width="25" height="25" viewBox="0 0 25 25" fill="none" xmlns="http://www.w3.org/2000/svg">
<path d="M14.0036 13.0443L10.1567 16.8913C10.0852 16.9628 10.0003 17.0195 9.90692 17.0581C9.81352 17.0968 9.71342 17.1167 9.61232 17.1167C9.51123 17.1167 9.41112 17.0968 9.31773 17.0581C9.22433 17.0195 9.13946 16.9628 9.06798 16.8913C8.9965 16.8198 8.93979 16.7349 8.90111 16.6415C8.86242 16.5481 8.84251 16.448 8.84251 16.3469C8.84251 16.2458 8.86242 16.1457 8.90111 16.0523C8.93979 15.9589 8.9965 15.8741 9.06798 15.8026L11.6021 13.2694H2.68784C2.48379 13.2694 2.28809 13.1883 2.14381 13.044C1.99952 12.8998 1.91846 12.7041 1.91846 12.5C1.91846 12.2959 1.99952 12.1003 2.14381 11.956C2.28809 11.8117 2.48379 11.7306 2.68784 11.7306H11.6021L9.06798 9.19741C8.92361 9.05304 8.84251 8.85724 8.84251 8.65307C8.84251 8.4489 8.92361 8.2531 9.06798 8.10873C9.21235 7.96436 9.40815 7.88326 9.61232 7.88326C9.81649 7.88326 10.0123 7.96436 10.1567 8.10873L14.0036 11.9557C14.0751 12.0271 14.1319 12.112 14.1706 12.2054C14.2093 12.2988 14.2292 12.3989 14.2292 12.5C14.2292 12.6011 14.2093 12.7012 14.1706 12.7946C14.1319 12.888 14.0751 12.9729 14.0036 13.0443ZM18.845 3.26736H13.4593C13.2552 3.26736 13.0595 3.34842 12.9152 3.49271C12.7709 3.637 12.6899 3.8327 12.6899 4.03675C12.6899 4.2408 12.7709 4.4365 12.9152 4.58079C13.0595 4.72508 13.2552 4.80614 13.4593 4.80614H18.845V20.1939H13.4593C13.2552 20.1939 13.0595 20.2749 12.9152 20.4192C12.7709 20.5635 12.6899 20.7592 12.6899 20.9633C12.6899 21.1673 12.7709 21.363 12.9152 21.5073C13.0595 21.6516 13.2552 21.7326 13.4593 21.7326H18.845C19.2531 21.7326 19.6445 21.5705 19.933 21.2819C20.2216 20.9934 20.3837 20.602 20.3837 20.1939V4.80614C20.3837 4.39803 20.2216 4.00664 19.933 3.71806C19.6445 3.42948 19.2531 3.26736 18.845 3.26736Z" fill="#F6F6F6"/>
</svg>
