<svg width="26" height="25" viewBox="0 0 26 25" fill="none" xmlns="http://www.w3.org/2000/svg">
<path d="M12.1866 4.03674V1.72858C12.1866 1.52453 12.2676 1.32883 12.4119 1.18455C12.5562 1.04026 12.7519 0.959198 12.956 0.959198C13.16 0.959198 13.3557 1.04026 13.5 1.18455C13.6443 1.32883 13.7253 1.52453 13.7253 1.72858V4.03674C13.7253 4.2408 13.6443 4.43649 13.5 4.58078C13.3557 4.72507 13.16 4.80613 12.956 4.80613C12.7519 4.80613 12.5562 4.72507 12.4119 4.58078C12.2676 4.43649 12.1866 4.2408 12.1866 4.03674ZM19.111 12.5C19.111 13.7174 18.7501 14.9074 18.0737 15.9196C17.3974 16.9318 16.4361 17.7207 15.3114 18.1866C14.1867 18.6524 12.9491 18.7743 11.7552 18.5368C10.5612 18.2993 9.46446 17.7131 8.60365 16.8523C7.74285 15.9915 7.15663 14.8948 6.91913 13.7008C6.68164 12.5068 6.80353 11.2692 7.26939 10.1445C7.73526 9.01985 8.52417 8.05855 9.53637 7.38222C10.5486 6.70589 11.7386 6.3449 12.956 6.3449C14.5878 6.34668 16.1524 6.99574 17.3063 8.14966C18.4602 9.30357 19.1093 10.8681 19.111 12.5ZM17.5723 12.5C17.5723 11.587 17.3015 10.6945 16.7943 9.9353C16.287 9.17616 15.5661 8.58447 14.7225 8.23507C13.879 7.88567 12.9508 7.79426 12.0554 7.97238C11.1599 8.1505 10.3373 8.59016 9.69173 9.23576C9.04612 9.88137 8.60646 10.7039 8.42834 11.5994C8.25022 12.4949 8.34164 13.4231 8.69104 14.2666C9.04043 15.1101 9.63212 15.8311 10.3913 16.3383C11.1504 16.8456 12.0429 17.1163 12.956 17.1163C14.1799 17.115 15.3533 16.6283 16.2188 15.7628C17.0842 14.8974 17.571 13.7239 17.5723 12.5ZM6.25653 6.88924C6.40089 7.03361 6.5967 7.11472 6.80087 7.11472C7.00503 7.11472 7.20084 7.03361 7.34521 6.88924C7.48958 6.74488 7.57068 6.54907 7.57068 6.3449C7.57068 6.14074 7.48958 5.94493 7.34521 5.80056L5.80643 4.26179C5.66207 4.11742 5.46626 4.03632 5.26209 4.03632C5.05793 4.03632 4.86212 4.11742 4.71775 4.26179C4.57338 4.40616 4.49228 4.60196 4.49228 4.80613C4.49228 5.0103 4.57338 5.2061 4.71775 5.35047L6.25653 6.88924ZM6.25653 18.1107L4.71775 19.6495C4.57338 19.7939 4.49228 19.9897 4.49228 20.1939C4.49228 20.398 4.57338 20.5938 4.71775 20.7382C4.86212 20.8826 5.05793 20.9637 5.26209 20.9637C5.46626 20.9637 5.66207 20.8826 5.80643 20.7382L7.34521 19.1994C7.41669 19.1279 7.4734 19.0431 7.51208 18.9497C7.55077 18.8563 7.57068 18.7562 7.57068 18.6551C7.57068 18.554 7.55077 18.4539 7.51208 18.3605C7.4734 18.2671 7.41669 18.1822 7.34521 18.1107C7.27372 18.0393 7.18886 17.9826 7.09546 17.9439C7.00206 17.9052 6.90196 17.8853 6.80087 17.8853C6.69977 17.8853 6.59967 17.9052 6.50627 17.9439C6.41287 17.9826 6.32801 18.0393 6.25653 18.1107ZM19.111 7.11429C19.2121 7.11437 19.3122 7.09453 19.4056 7.05592C19.499 7.01731 19.5839 6.96067 19.6554 6.88924L21.1942 5.35047C21.3385 5.2061 21.4196 5.0103 21.4196 4.80613C21.4196 4.60196 21.3385 4.40616 21.1942 4.26179C21.0498 4.11742 20.854 4.03632 20.6498 4.03632C20.4457 4.03632 20.2498 4.11742 20.1055 4.26179L18.5667 5.80056C18.459 5.90816 18.3856 6.04531 18.3559 6.19464C18.3261 6.34396 18.3414 6.49875 18.3997 6.63942C18.4579 6.78008 18.5566 6.90028 18.6833 6.98482C18.8099 7.06935 18.9588 7.11441 19.111 7.11429ZM19.6554 18.1107C19.511 17.9664 19.3152 17.8853 19.111 17.8853C18.9069 17.8853 18.7111 17.9664 18.5667 18.1107C18.4223 18.2551 18.3412 18.4509 18.3412 18.6551C18.3412 18.8593 18.4223 19.0551 18.5667 19.1994L20.1055 20.7382C20.177 20.8097 20.2618 20.8664 20.3552 20.9051C20.4486 20.9438 20.5487 20.9637 20.6498 20.9637C20.7509 20.9637 20.851 20.9438 20.9444 20.9051C21.0378 20.8664 21.1227 20.8097 21.1942 20.7382C21.2656 20.6667 21.3223 20.5819 21.361 20.4885C21.3997 20.3951 21.4196 20.295 21.4196 20.1939C21.4196 20.0928 21.3997 19.9927 21.361 19.8993C21.3223 19.8059 21.2656 19.721 21.1942 19.6495L19.6554 18.1107ZM5.26209 12.5C5.26209 12.2959 5.18103 12.1002 5.03675 11.956C4.89246 11.8117 4.69676 11.7306 4.49271 11.7306H2.18455C1.98049 11.7306 1.7848 11.8117 1.64051 11.956C1.49622 12.1002 1.41516 12.2959 1.41516 12.5C1.41516 12.704 1.49622 12.8997 1.64051 13.044C1.7848 13.1883 1.98049 13.2694 2.18455 13.2694H4.49271C4.69676 13.2694 4.89246 13.1883 5.03675 13.044C5.18103 12.8997 5.26209 12.704 5.26209 12.5ZM12.956 20.1939C12.7519 20.1939 12.5562 20.2749 12.4119 20.4192C12.2676 20.5635 12.1866 20.7592 12.1866 20.9632V23.2714C12.1866 23.4755 12.2676 23.6712 12.4119 23.8154C12.5562 23.9597 12.7519 24.0408 12.956 24.0408C13.16 24.0408 13.3557 23.9597 13.5 23.8154C13.6443 23.6712 13.7253 23.4755 13.7253 23.2714V20.9632C13.7253 20.7592 13.6443 20.5635 13.5 20.4192C13.3557 20.2749 13.16 20.1939 12.956 20.1939ZM23.7274 11.7306H21.4192C21.2152 11.7306 21.0195 11.8117 20.8752 11.956C20.7309 12.1002 20.6498 12.2959 20.6498 12.5C20.6498 12.704 20.7309 12.8997 20.8752 13.044C21.0195 13.1883 21.2152 13.2694 21.4192 13.2694H23.7274C23.9314 13.2694 24.1271 13.1883 24.2714 13.044C24.4157 12.8997 24.4968 12.704 24.4968 12.5C24.4968 12.2959 24.4157 12.1002 24.2714 11.956C24.1271 11.8117 23.9314 11.7306 23.7274 11.7306Z" fill="#F6F6F6"/>
</svg>
