<svg width="26" height="25" viewBox="0 0 26 25" fill="none" xmlns="http://www.w3.org/2000/svg">
<path d="M13.0762 2.49796C11.098 2.49796 9.16424 3.08456 7.51942 4.1836C5.8746 5.28264 4.59261 6.84474 3.83558 8.67237C3.07855 10.5 2.88048 12.5111 3.26641 14.4513C3.65234 16.3915 4.60494 18.1737 6.00375 19.5725C7.40256 20.9713 9.18475 21.9239 11.1249 22.3098C13.0652 22.6957 15.0762 22.4977 16.9039 21.7406C18.7315 20.9836 20.2936 19.7016 21.3926 18.0568C22.4917 16.412 23.0783 14.4782 23.0783 12.5C23.0755 9.84814 22.0208 7.30571 20.1457 5.43057C18.2705 3.55544 15.7281 2.50076 13.0762 2.49796ZM7.89058 19.184C8.44717 18.3135 9.21393 17.5972 10.1202 17.101C11.0264 16.6048 12.043 16.3447 13.0762 16.3447C14.1095 16.3447 15.126 16.6048 16.0323 17.101C16.9386 17.5972 17.7053 18.3135 18.2619 19.184C16.7792 20.3371 14.9545 20.9632 13.0762 20.9632C11.198 20.9632 9.37325 20.3371 7.89058 19.184ZM9.9987 11.7306C9.9987 11.1219 10.1792 10.5269 10.5174 10.0208C10.8555 9.5147 11.3362 9.12024 11.8985 8.88731C12.4609 8.65438 13.0797 8.59343 13.6766 8.71218C14.2736 8.83093 14.822 9.12404 15.2524 9.55444C15.6828 9.98484 15.9759 10.5332 16.0947 11.1302C16.2134 11.7272 16.1525 12.346 15.9195 12.9083C15.6866 13.4707 15.2921 13.9513 14.786 14.2895C14.2799 14.6276 13.6849 14.8081 13.0762 14.8081C12.26 14.8081 11.4772 14.4839 10.9001 13.9067C10.3229 13.3296 9.9987 12.5468 9.9987 11.7306ZM19.4006 18.1175C18.5425 16.874 17.3359 15.912 15.9326 15.3525C16.6864 14.7587 17.2365 13.9449 17.5063 13.024C17.7761 12.1032 17.7523 11.1211 17.4381 10.2145C17.1239 9.30779 16.535 8.52156 15.7533 7.96511C14.9715 7.40866 14.0358 7.10964 13.0762 7.10964C12.1167 7.10964 11.181 7.40866 10.3992 7.96511C9.61748 8.52156 9.02857 9.30779 8.71439 10.2145C8.40021 11.1211 8.37637 12.1032 8.64619 13.024C8.91601 13.9449 9.46608 14.7587 10.2199 15.3525C8.81656 15.912 7.60998 16.874 6.75189 18.1175C5.6676 16.8981 4.9589 15.3914 4.71114 13.7786C4.46337 12.1658 4.68709 10.5158 5.35537 9.02726C6.02365 7.53869 7.10799 6.27504 8.47782 5.38848C9.84765 4.50191 11.4446 4.03023 13.0762 4.03023C14.7079 4.03023 16.3048 4.50191 17.6747 5.38848C19.0445 6.27504 20.1288 7.53869 20.7971 9.02726C21.4654 10.5158 21.6891 12.1658 21.4414 13.7786C21.1936 15.3914 20.4849 16.8981 19.4006 18.1175Z" fill="#F6F6F6"/>
</svg>
